<svg version="1.1" id="Layer_1" xmlns="http://www.w3.org/2000/svg" xmlns:xlink="http://www.w3.org/1999/xlink" x="0px" y="0px" width="225px" height="103px" viewBox="0 0 225 103" enable-background="new 0 0 225 103" xml:space="preserve">
  <defs>
    <style>
      .st1 {
        -webkit-animation-name: fadeInFromNone;
        -webkit-animation-duration: 0.5s;
        -webkit-animation-timing-function: linear;
        -webkit-animation-delay: 0s;
        -webkit-animation-iteration-count: infinite;
        -webkit-animation-direction: alternate;
        -moz-animation-name: fadeInFromNone;
        -moz-animation-duration: 0.5s;
        -moz-animation-timing-function: linear;
        -moz-animation-delay: 0s;
        -moz-animation-iteration-count: infinite;
        -moz-animation-direction: alternate;
        -o-animation-name: fadeInFromNone;
        -o-animation-duration: 0.5s;
        -o-animation-timing-function: linear;
        -o-animation-delay: 0s;
        -o-animation-iteration-count: infinite;
        -o-animation-direction: alternate;
        animation-name: fadeInFromNone;
        animation-duration: 0.5s;
        animation-timing-function: linear;
        animation-delay: 0s;
        animation-iteration-count: infinite;
        animation-direction: alternate;
      }
      @-webkit-keyframes fadeInFromNone {
        0%,
        1% {
          opacity: 0.3;
        }
        100% {
          opacity: 1;
        }
      }
      @-moz-keyframes fadeInFromNone {
        0%,
        1% {
          opacity: 0.3;
        }
        100% {
          opacity: 1;
        }
      }
      @-o-keyframes fadeInFromNone {
        0%,
        1% {
          opacity: 0.3;
        }
        100% {
          opacity: 1;
        }
      }
      @keyframes fadeInFromNone {
        0%,
        1% {
          opacity: 0.3;
        }
        100% {
          opacity: 1;
        }
      }
    </style>
  </defs>
  <g>
    <path
      class="st1"
      fill="#2FB9D8"
      d="M146.122,72.348c0,4.477-0.179,8.137,0.055,11.77c0.2,3.112-1.485,3.204-3.823,3.255
		c-2.527,0.055-3.758-0.475-3.704-3.402c0.167-9.11-0.156-18.231,0.114-27.335c0.434-14.638,14.784-23.307,28.097-17.172
		c1.287,0.593,2.42,1.564,3.999,1.358c2.272-0.296,4.686,0.693,2.831-3.84c-1.672-4.084-1.748-9.194,2.732-13.098
		c5.412-4.715,10.309-10.029,15.318-15.192c2.409-2.484,4.476-2.545,6.885-0.026c3.645,3.812,7.379,7.544,11.191,11.189
		c2.438,2.331,2.748,4.397,0.193,6.887c-5.61,5.467-10.979,11.184-16.682,16.55c-4.099,3.857-8.891,2.196-13.328,0.567
		c-1.537-0.564-2.577-1.008-3.788,0.266c-1.057,1.112-1.679,2.218-0.918,3.841c4.093,8.728,2.718,16.72-4.344,23.112
		C163.674,77.664,155.356,77.464,146.122,72.348z M146.131,56.838c0.07,6.981,5.921,12.52,12.726,12.048
		c6.682-0.463,11.903-6.437,11.339-12.975c-0.181-2.096-0.298-3.634-3.417-2.739c-3.906,1.12-5.849-1.219-5.161-5.015
		c0.509-2.813-0.639-3.239-2.919-3.365C151.74,44.405,146.06,49.795,146.131,56.838z M165.9,52.115
		c0.897-0.341,2.57-0.033,2.226-1.644c-0.411-1.923-1.856-3.34-3.81-3.665c-1.385-0.23-1.658,1.142-1.71,2.245
		C162.501,51.295,163.933,51.991,165.9,52.115z"/>
    <path
      class="st1"
      fill="#2FB9D8"
      d="M48.327,76.078c-9.175-0.036-17.096-6.758-18.859-16.004c-1.663-8.723,3.435-17.841,11.882-21.249
		c8.449-3.409,18.185-0.358,23.269,7.15c1.513,2.235,1.716,3.672-0.921,5.331c-6.476,4.076-12.768,8.446-19.114,12.728
		c-0.861,0.581-2.319,0.88-2.052,2.273c0.241,1.256,1.598,1.405,2.638,1.711c6.607,1.947,13.177-1.544,14.622-8.56
		c0.95-4.613,3.982-3.56,6.466-3.176c3.041,0.47,1.375,3.155,1.086,4.676C65.681,69.72,57.489,76.115,48.327,76.078z M55.899,47.789
		c-5.384-3.624-10.339-3.676-14.458-0.475c-4.089,3.177-5.387,7.285-3.618,12.153C43.828,55.586,49.768,51.749,55.899,47.789z"/>
    <path
      class="st1"
      fill="#2FB9D8"
      d="M113.332,76.077c-10.848-0.027-19.658-8.76-19.568-19.397c0.089-10.509,8.748-19.18,19.22-19.248
		c10.753-0.07,19.662,8.752,19.572,19.382C132.467,67.33,123.713,76.103,113.332,76.077z M101.093,57.03
		c0.103,6.645,5.821,12.104,12.424,11.861c6.523-0.241,11.65-5.578,11.651-12.129c0.001-6.818-5.299-12.041-12.146-11.973
		C106.225,44.857,100.988,50.231,101.093,57.03z"/>
    <path
      class="st1"
      fill="#2FB9D8"
      d="M77.101,60.378c-0.002-3.839-0.075-7.681,0.026-11.517c0.059-2.26-0.394-3.845-3.108-3.501
		c-2.836,0.36-3.06-1.332-2.998-3.519c0.057-2.023-0.125-4.005,2.878-3.593c2.586,0.354,3.401-0.944,3.225-3.351
		c-0.128-1.75,0.14-3.536-0.056-5.273c-0.345-3.051,1.008-3.794,3.852-3.761c2.646,0.031,3.869,0.739,3.617,3.538
		c-0.171,1.904,0.064,3.842-0.051,5.755c-0.133,2.198,0.607,3.396,2.968,3.093c2.82-0.361,3.042,1.328,3.024,3.516
		c-0.017,2.105-0.017,3.925-2.922,3.604c-2.751-0.304-3.083,1.411-3.068,3.597c0.051,7.518-0.055,15.038,0.054,22.555
		c0.038,2.621-0.306,4.107-3.562,4.123c-3.302,0.016-4.115-1.206-3.931-4.229C77.273,67.747,77.103,64.057,77.101,60.378z"/>
  </g>
</svg>
