<svg version="1.1" id="Layer_1" xmlns="http://www.w3.org/2000/svg" xmlns:xlink="http://www.w3.org/1999/xlink" x="0px" y="0px"
	 width="128.16px" height="72.64px" viewBox="0 0 128.16 72.64" enable-background="new 0 0 128.16 72.64" xml:space="preserve">
	   <defs>
    <style>
      .st1 {
        -webkit-animation-name: fadeInFromNone;
        -webkit-animation-duration: 0.5s;
        -webkit-animation-timing-function: linear;
        -webkit-animation-delay: 0s;
        -webkit-animation-iteration-count: infinite;
        -webkit-animation-direction: alternate;
        -moz-animation-name: fadeInFromNone;
        -moz-animation-duration: 0.5s;
        -moz-animation-timing-function: linear;
        -moz-animation-delay: 0s;
        -moz-animation-iteration-count: infinite;
        -moz-animation-direction: alternate;
        -o-animation-name: fadeInFromNone;
        -o-animation-duration: 0.5s;
        -o-animation-timing-function: linear;
        -o-animation-delay: 0s;
        -o-animation-iteration-count: infinite;
        -o-animation-direction: alternate;
        animation-name: fadeInFromNone;
        animation-duration: 0.5s;
        animation-timing-function: linear;
        animation-delay: 0s;
        animation-iteration-count: infinite;
        animation-direction: alternate;
      }
      @-webkit-keyframes fadeInFromNone {
        
        0% {
          opacity: 0.3;
        }
        100% {
          opacity: 1;
        }
      }
      @-moz-keyframes fadeInFromNone {
     
        0% {
          opacity: 0.3;
        }
        100% {
          opacity: 1;
        }
      }
      @-o-keyframes fadeInFromNone {
    
        0% {
          opacity: 0.3;
        }
        100% {
          opacity: 1;
        }
      }
      @keyframes fadeInFromNone {
   
        0% {
          opacity: 0.3;
        }
        100% {
          opacity: 1;
        }
      }
    </style>
	</defs>
<g>
	 <path class="st1" fill="#EDEDED" d="M59.762,48.133c0.006,0.089-0.019,0.165-0.085,0.227c-0.061,0.058-0.119,0.119-0.178,0.178
		c-7.643,7.643-15.287,15.286-22.928,22.931c-0.449,0.449-0.959,0.785-1.568,0.974c-0.111,0.034-0.283,0.016-0.298,0.204
		c-0.624,0-1.248,0-1.872,0c-0.006-0.106-0.078-0.123-0.167-0.149c-0.701-0.206-1.308-0.568-1.827-1.087
		c-9.854-9.857-19.711-19.713-29.567-29.568c-0.582-0.582-0.983-1.259-1.125-2.075C0.129,39.673,0.105,39.608,0,39.6
		c0-0.456,0-0.912,0-1.368c0.183-0.011,0.146-0.171,0.17-0.273c0.179-0.758,0.582-1.38,1.126-1.924
		C12.85,24.483,24.405,12.93,35.954,1.372c0.628-0.628,1.336-1.078,2.218-1.23C38.259,0.127,38.295,0.08,38.304,0
		c6.84,0,13.68,0,20.52,0c0.006,0.181,0.157,0.262,0.264,0.369c2.467,2.471,4.937,4.939,7.404,7.409
		c0.099,0.099,0.234,0.176,0.255,0.336c-0.143,0.006-0.287,0.019-0.43,0.019c-4.644,0.001-9.287,0.001-13.931,0.001
		c-1.752,0-3.504-0.001-5.256,0.001c-0.303,0-0.308,0.005-0.309,0.291c-0.002,1.464-0.002,2.928,0,4.392
		c0,0.282,0.006,0.282,0.274,0.29c0.084,0.002,0.168,0,0.252,0c3.828,0,7.655-0.001,11.483,0.001c0.537,0,0.483-0.066,0.483,0.477
		c0.001,11.351,0.001,22.702,0.001,34.053C59.314,48.087,59.314,48.087,59.762,48.133z M33.525,41.228
		c0.176-0.253,0.383-0.4,0.563-0.573c2.087-2.018,4.176-4.032,6.263-6.049c1.32-1.275,2.636-2.554,3.956-3.829
		c1.216-1.175,2.435-2.348,3.65-3.524c0.214-0.207,0.212-0.215,0.045-0.446c-0.67-0.93-1.439-1.771-2.357-2.459
		c-2.887-2.163-6.119-3.016-9.691-2.457c-2.781,0.435-5.165,1.652-7.066,3.755c-1.129,1.249-2.012,2.655-2.606,4.234
		c-0.658,1.748-0.854,3.554-0.662,5.41c0.152,1.468,0.509,2.878,1.13,4.216c1.171,2.524,3.057,4.361,5.511,5.622
		c2.258,1.161,4.653,1.589,7.181,1.254c1.316-0.174,2.587-0.5,3.796-1.05c2.301-1.046,4.057-2.702,5.365-4.844
		c1.59-2.606,2.107-5.421,1.586-8.428c-0.041-0.237-0.047-0.238-0.271-0.196c-0.612,0.116-1.224,0.233-1.835,0.352
		c-0.553,0.108-1.103,0.225-1.657,0.324c-0.168,0.03-0.232,0.099-0.2,0.262c0.009,0.047,0.01,0.096,0.017,0.143
		c0.135,0.883,0.144,1.766-0.008,2.648c-0.358,2.073-1.348,3.803-2.991,5.095c-2.226,1.751-4.766,2.198-7.505,1.53
		C34.953,42.026,34.23,41.68,33.525,41.228z"/>
	 <path class="st1" fill="#27B5DA" d="M128.16,34.272c-0.075,0.024-0.067,0.088-0.071,0.145c-0.122,1.767-0.653,3.413-1.557,4.927
		c-1.321,2.214-3.097,3.961-5.445,5.078c-1.326,0.631-2.731,0.947-4.198,1.029c-1.675,0.094-3.303-0.111-4.877-0.689
		c-1.627-0.598-3.018-1.56-4.223-2.799c-0.114-0.117-0.207-0.261-0.378-0.346c-0.07,0.137-0.039,0.27-0.039,0.395
		c-0.002,3.539-0.001,7.079-0.002,10.618c0,0.495,0.05,0.45-0.436,0.451c-1.068,0.002-2.136,0.001-3.203,0
		c-0.353,0-0.356-0.002-0.356-0.352c-0.001-2.148,0-4.295,0-6.443c0-4.403,0.007-8.806-0.002-13.209
		c-0.008-3.791,1.503-6.873,4.318-9.355c1.541-1.359,3.3-2.315,5.323-2.713c4.315-0.848,8.133,0.117,11.341,3.209
		c1.558,1.502,2.712,3.256,3.32,5.347c0.215,0.738,0.382,1.485,0.415,2.257c0.002,0.058-0.004,0.122,0.071,0.146
		C128.16,32.736,128.16,33.504,128.16,34.272z M115.76,41.498c4.626,0.107,8.494-4.011,8.379-8.33
		c0.174-4.446-3.877-8.454-8.361-8.454c-4.319,0-8.429,3.67-8.415,8.418C107.376,37.838,111.353,41.592,115.76,41.498z"/>
	 <path class="st1" fill="#26B5DA" d="M59.762,48.133c-0.448-0.046-0.448-0.046-0.448-0.495c0-11.351,0-22.702-0.001-34.053
		c0-0.543,0.054-0.477-0.483-0.477c-3.828-0.002-7.655-0.001-11.483-0.001c-0.084,0-0.168,0.002-0.252,0
		c-0.268-0.007-0.274-0.008-0.274-0.29c-0.002-1.464-0.002-2.928,0-4.392c0-0.286,0.006-0.29,0.309-0.291
		c1.752-0.001,3.504-0.001,5.256-0.001c4.644,0,9.287,0,13.931-0.001c0.143,0,0.287-0.012,0.43-0.019
		C66.878,8.12,67.01,8.13,67.141,8.13c3.044,0.001,6.089,0.001,9.133,0.001c0.072,0,0.144-0.001,0.216,0
		c0.335,0.003,0.338,0.003,0.339,0.329c0.001,0.995,0.001,1.99,0.001,2.985c0,0.455,0.002,0.911-0.001,1.366
		c-0.002,0.293-0.005,0.298-0.297,0.298c-1.402,0.002-2.805,0.001-4.207,0.001c-0.132,0-0.263,0.008-0.395,0.012
		c-0.06-0.005-0.119-0.015-0.179-0.015c-2.374-0.001-4.748-0.001-7.122,0c-0.314,0-0.314,0.004-0.319,0.317
		c-0.001,0.036,0,0.072,0,0.108c0,9.928,0,19.855,0.001,29.783c0,0.131-0.017,0.264,0.024,0.393c-0.007,0.131-0.02,0.262-0.02,0.393
		c-0.002,1.232,0,2.465-0.002,3.697c0,0.311-0.004,0.315-0.317,0.316c-1.256,0.002-2.513,0-3.769,0.002
		C60.072,48.115,59.917,48.127,59.762,48.133z"/>
	 <path class="st1" fill="#27B5DA" d="M73.539,33.106c-0.081-7,6.033-12.656,12.596-12.381c6.456-0.101,12.444,5.652,12.217,12.567
		c0.057,6.363-5.378,12.209-12.404,12.211C79.053,45.503,73.45,39.79,73.539,33.106z M94.364,33.173
		c0.1-4.688-4.029-8.326-8.116-8.455c-4.496-0.142-8.608,3.635-8.698,8.209c-0.094,4.813,3.942,8.38,7.945,8.581
		C90.163,41.743,94.39,37.911,94.364,33.173z"/>
	 <path class="st1" fill="#ECEDED" d="M64.335,43.708c-0.041-0.129-0.024-0.262-0.024-0.393C64.31,33.387,64.31,23.46,64.31,13.532
		c0-0.036,0-0.072,0-0.108c0.005-0.313,0.005-0.317,0.319-0.317c2.374-0.001,4.748-0.001,7.122,0c0.06,0,0.119,0.01,0.179,0.015
		c0.043,0.221,0.234,0.33,0.38,0.461c0.205,0.184,0.272,0.387,0.272,0.661c-0.007,6.128-0.003,12.255-0.012,18.383
		c-0.001,0.362,0.082,0.711,0.08,1.07c-0.005,0.927-0.276,1.767-0.834,2.505c-0.215,0.285-0.464,0.548-0.716,0.801
		c-2.151,2.157-4.305,4.309-6.46,6.462C64.548,43.557,64.475,43.676,64.335,43.708z"/>
	 <path class="st1" fill="#27B5DA" d="M33.525,41.228c0.705,0.452,1.428,0.798,2.213,0.99c2.739,0.668,5.279,0.221,7.505-1.53
		c1.643-1.292,2.633-3.022,2.991-5.095c0.152-0.882,0.144-1.765,0.008-2.648c-0.007-0.047-0.008-0.096-0.017-0.143
		c-0.031-0.164,0.032-0.232,0.2-0.262c0.554-0.099,1.105-0.216,1.657-0.324c0.611-0.119,1.223-0.236,1.835-0.352
		c0.224-0.043,0.23-0.041,0.271,0.196c0.521,3.006,0.004,5.822-1.586,8.428c-1.307,2.143-3.064,3.799-5.365,4.844
		c-1.209,0.55-2.48,0.875-3.796,1.05c-2.528,0.335-4.923-0.094-7.181-1.254c-2.454-1.262-4.34-3.099-5.511-5.622
		c-0.621-1.338-0.978-2.749-1.13-4.216c-0.192-1.856,0.004-3.662,0.662-5.41c0.594-1.578,1.476-2.984,2.606-4.234
		c1.901-2.103,4.285-3.321,7.066-3.755c3.572-0.558,6.804,0.295,9.691,2.457c0.918,0.688,1.686,1.529,2.357,2.459
		c0.167,0.232,0.169,0.239-0.045,0.446c-1.215,1.176-2.434,2.349-3.65,3.524c-1.319,1.276-2.636,2.554-3.956,3.829
		c-2.087,2.017-4.176,4.032-6.263,6.049C33.908,40.828,33.7,40.975,33.525,41.228z M30.716,38.329
		c0.114-0.101,0.186-0.162,0.254-0.228c1.261-1.215,2.522-2.431,3.781-3.647c1.553-1.5,3.106-3,4.658-4.5
		c0.949-0.917,1.898-1.833,2.845-2.753c0.196-0.19,0.193-0.197-0.031-0.33c-0.444-0.264-0.908-0.489-1.393-0.667
		c-1.395-0.512-2.824-0.614-4.284-0.356c-1.866,0.329-3.487,1.119-4.745,2.563c-1.845,2.118-2.585,4.554-2.064,7.34
		C29.906,36.653,30.248,37.493,30.716,38.329z"/>
	 <path class="st1" fill="#ECEDED" d="M30.716,38.329c-0.467-0.837-0.81-1.676-0.979-2.579c-0.521-2.785,0.219-5.222,2.064-7.34
		c1.258-1.444,2.879-2.233,4.745-2.563c1.46-0.258,2.889-0.157,4.284,0.356c0.485,0.178,0.949,0.403,1.393,0.667
		c0.224,0.133,0.227,0.14,0.031,0.33c-0.947,0.919-1.896,1.836-2.845,2.753c-1.552,1.5-3.105,3.001-4.658,4.5
		c-1.26,1.216-2.521,2.432-3.781,3.647C30.902,38.167,30.829,38.228,30.716,38.329z"/>
</g>
</svg>
