<svg width="452" height="127" viewBox="0 0 452 127" version="1.1" xmlns="http://www.w3.org/2000/svg" xmlns:xlink="http://www.w3.org/1999/xlink">
<title>Group 2.3</title>
<desc>Created using Figma</desc>
<g id="Canvas" transform="translate(-43 -3088)">
<g id="Group 2.3">
<g id="Rectangle 3" filter="url(#filter0_d)">
<use xlink:href="#path0_fill" transform="translate(59.0636 3104.86)" fill="#FFFFFF"/>
</g>
<g id="&#196;&#144;&#225;&#187;&#145;i t&#195;&#161;c">
<use xlink:href="#path1_fill" transform="translate(220.807 3126.36)" fill="#343E49"/>
</g>
<g id="Ellipse 2">
<use xlink:href="#path2_fill" transform="translate(92.5288 3140.17)" fill="#33b7d5"/>
</g>
</g>
</g>
<defs>
<filter id="filter0_d" filterUnits="userSpaceOnUse" x="43" y="3088" width="452" height="127" color-interpolation-filters="sRGB">
<feFlood flood-opacity="0" result="BackgroundImageFix"/>
<feColorMatrix in="SourceAlpha" type="matrix" values="0 0 0 0 0 0 0 0 0 0 0 0 0 0 0 0 0 0 255 0"/>
<feOffset dx="0" dy="4"/>
<feGaussianBlur stdDeviation="10"/>
<feColorMatrix type="matrix" values="0 0 0 0 0 0 0 0 0 0 0 0 0 0 0 0 0 0 0.1 0"/>
<feBlend mode="normal" in2="BackgroundImageFix" result="effect1_dropShadow"/>
<feBlend mode="normal" in="SourceGraphic" in2="effect1_dropShadow" result="shape"/>
</filter>
<path id="path0_fill" d="M 34.1212 5.14032C 36.9699 1.87434 41.0918 0 45.4255 0L 402.936 0C 410.116 0 415.936 5.8203 415.936 13L 415.936 72.994C 415.936 80.1737 410.116 85.994 402.936 85.994L 45.1627 85.994C 40.9817 85.994 36.9905 84.2491 34.1514 81.1799L 7.92972 52.8332C 3.41947 47.9575 3.30997 40.4659 7.6758 35.4604L 34.1212 5.14032Z"/>
<path id="path1_fill" d="M 13.104 31.32C 14.268 31.32 15.306 31.128 16.218 30.744C 17.13 30.348 17.898 29.79 18.522 29.07C 19.158 28.338 19.644 27.45 19.98 26.406C 20.316 25.362 20.484 24.186 20.484 22.878C 20.484 21.582 20.316 20.412 19.98 19.368C 19.644 18.324 19.158 17.442 18.522 16.722C 17.898 15.99 17.13 15.432 16.218 15.048C 15.306 14.652 14.268 14.454 13.104 14.454L 9.036 14.454L 9.036 21.186L 13.428 21.186L 13.428 24.498L 9.036 24.498L 9.036 31.32L 13.104 31.32ZM 13.104 9.774C 15.144 9.774 16.998 10.104 18.666 10.764C 20.346 11.424 21.78 12.336 22.968 13.5C 24.156 14.664 25.074 16.05 25.722 17.658C 26.382 19.254 26.712 20.994 26.712 22.878C 26.712 24.774 26.382 26.526 25.722 28.134C 25.074 29.73 24.156 31.116 22.968 32.292C 21.78 33.456 20.346 34.368 18.666 35.028C 16.998 35.676 15.144 36 13.104 36L 2.916 36L 2.916 24.498L -0.072 24.498L -0.072 21.186L 2.916 21.186L 2.916 9.774L 13.104 9.774ZM 39.8565 17.046C 41.2725 17.046 42.5625 17.268 43.7265 17.712C 44.8905 18.156 45.8865 18.792 46.7145 19.62C 47.5545 20.448 48.2025 21.456 48.6585 22.644C 49.1265 23.82 49.3605 25.146 49.3605 26.622C 49.3605 28.11 49.1265 29.454 48.6585 30.654C 48.2025 31.842 47.5545 32.856 46.7145 33.696C 45.8865 34.524 44.8905 35.166 43.7265 35.622C 42.5625 36.066 41.2725 36.288 39.8565 36.288C 38.4285 36.288 37.1265 36.066 35.9505 35.622C 34.7865 35.166 33.7785 34.524 32.9265 33.696C 32.0865 32.856 31.4325 31.842 30.9645 30.654C 30.5085 29.454 30.2805 28.11 30.2805 26.622C 30.2805 25.146 30.5085 23.82 30.9645 22.644C 31.4325 21.456 32.0865 20.448 32.9265 19.62C 33.7785 18.792 34.7865 18.156 35.9505 17.712C 37.1265 17.268 38.4285 17.046 39.8565 17.046ZM 39.8565 32.148C 41.1405 32.148 42.0825 31.698 42.6825 30.798C 43.2945 29.886 43.6005 28.506 43.6005 26.658C 43.6005 24.81 43.2945 23.436 42.6825 22.536C 42.0825 21.636 41.1405 21.186 39.8565 21.186C 38.5365 21.186 37.5705 21.636 36.9585 22.536C 36.3465 23.436 36.0405 24.81 36.0405 26.658C 36.0405 28.506 36.3465 29.886 36.9585 30.798C 37.5705 31.698 38.5365 32.148 39.8565 32.148ZM 46.7325 14.976L 43.0245 14.976C 42.8085 14.976 42.6105 14.946 42.4305 14.886C 42.2505 14.814 42.0885 14.724 41.9445 14.616L 40.4325 12.978C 40.3605 12.906 40.2825 12.828 40.1985 12.744C 40.1265 12.66 40.0545 12.57 39.9825 12.474C 39.9105 12.57 39.8325 12.66 39.7485 12.744C 39.6765 12.828 39.6045 12.906 39.5325 12.978L 37.9845 14.616C 37.8765 14.712 37.7205 14.796 37.5165 14.868C 37.3245 14.94 37.1205 14.976 36.9045 14.976L 33.0525 14.976L 37.2645 9.774L 42.5205 9.774L 46.7325 14.976ZM 53.3205 7.146L 48.6585 11.25C 48.3465 11.55 48.0405 11.766 47.7405 11.898C 47.4405 12.018 47.1525 12.066 46.8765 12.042C 46.6005 12.018 46.3365 11.928 46.0845 11.772C 45.8445 11.616 45.6165 11.406 45.4005 11.142L 44.6445 10.26L 45.9405 8.226C 46.0485 8.058 46.1625 7.908 46.2825 7.776C 46.4025 7.644 46.5345 7.53 46.6785 7.434C 46.8345 7.338 47.0085 7.266 47.2005 7.218C 47.4045 7.17 47.6445 7.146 47.9205 7.146L 53.3205 7.146ZM 59.6413 17.334L 59.6413 36L 54.0613 36L 54.0613 17.334L 59.6413 17.334ZM 60.2173 12.222C 60.2173 12.666 60.1273 13.086 59.9473 13.482C 59.7673 13.866 59.5213 14.208 59.2093 14.508C 58.8973 14.796 58.5313 15.03 58.1113 15.21C 57.7033 15.378 57.2653 15.462 56.7973 15.462C 56.3413 15.462 55.9153 15.378 55.5193 15.21C 55.1233 15.03 54.7693 14.796 54.4573 14.508C 54.1573 14.208 53.9173 13.866 53.7373 13.482C 53.5693 13.086 53.4853 12.666 53.4853 12.222C 53.4853 11.766 53.5693 11.34 53.7373 10.944C 53.9173 10.548 54.1573 10.2 54.4573 9.9C 54.7693 9.6 55.1233 9.366 55.5193 9.198C 55.9153 9.03 56.3413 8.946 56.7973 8.946C 57.2653 8.946 57.7033 9.03 58.1113 9.198C 58.5313 9.366 58.8973 9.6 59.2093 9.9C 59.5213 10.2 59.7673 10.548 59.9473 10.944C 60.1273 11.34 60.2173 11.766 60.2173 12.222ZM 82.143 36.288C 81.255 36.288 80.469 36.162 79.785 35.91C 79.113 35.646 78.543 35.28 78.075 34.812C 77.619 34.332 77.271 33.756 77.031 33.084C 76.791 32.412 76.671 31.662 76.671 30.834L 76.671 21.186L 75.087 21.186C 74.799 21.186 74.553 21.096 74.349 20.916C 74.145 20.724 74.043 20.448 74.043 20.088L 74.043 17.91L 77.013 17.334L 78.111 12.78C 78.255 12.204 78.663 11.916 79.335 11.916L 82.251 11.916L 82.251 17.37L 86.877 17.37L 86.877 21.186L 82.251 21.186L 82.251 30.456C 82.251 30.888 82.353 31.248 82.557 31.536C 82.773 31.812 83.079 31.95 83.475 31.95C 83.679 31.95 83.847 31.932 83.979 31.896C 84.123 31.848 84.243 31.8 84.339 31.752C 84.447 31.692 84.543 31.644 84.627 31.608C 84.723 31.56 84.831 31.536 84.951 31.536C 85.119 31.536 85.251 31.578 85.347 31.662C 85.455 31.734 85.563 31.854 85.671 32.022L 87.363 34.668C 86.643 35.208 85.833 35.616 84.933 35.892C 84.033 36.156 83.103 36.288 82.143 36.288ZM 100.711 28.404C 99.5954 28.452 98.6774 28.548 97.9574 28.692C 97.2374 28.836 96.6674 29.016 96.2474 29.232C 95.8274 29.448 95.5334 29.694 95.3654 29.97C 95.2094 30.246 95.1314 30.546 95.1314 30.87C 95.1314 31.506 95.3054 31.956 95.6534 32.22C 96.0014 32.472 96.5114 32.598 97.1834 32.598C 97.9034 32.598 98.5334 32.472 99.0734 32.22C 99.6134 31.968 100.159 31.56 100.711 30.996L 100.711 28.404ZM 90.6674 19.926C 91.7954 18.93 93.0434 18.192 94.4114 17.712C 95.7914 17.22 97.2674 16.974 98.8394 16.974C 99.9674 16.974 100.981 17.16 101.881 17.532C 102.793 17.892 103.561 18.402 104.185 19.062C 104.821 19.71 105.307 20.484 105.643 21.384C 105.979 22.284 106.147 23.268 106.147 24.336L 106.147 36L 103.591 36C 103.063 36 102.661 35.928 102.385 35.784C 102.121 35.64 101.899 35.34 101.719 34.884L 101.323 33.858C 100.855 34.254 100.405 34.602 99.9734 34.902C 99.5414 35.202 99.0914 35.46 98.6234 35.676C 98.1674 35.88 97.6754 36.03 97.1474 36.126C 96.6314 36.234 96.0554 36.288 95.4194 36.288C 94.5674 36.288 93.7934 36.18 93.0974 35.964C 92.4014 35.736 91.8074 35.406 91.3154 34.974C 90.8354 34.542 90.4634 34.008 90.1994 33.372C 89.9354 32.724 89.8034 31.98 89.8034 31.14C 89.8034 30.468 89.9714 29.79 90.3074 29.106C 90.6434 28.41 91.2254 27.78 92.0534 27.216C 92.8814 26.64 93.9974 26.16 95.4014 25.776C 96.8054 25.392 98.5754 25.176 100.711 25.128L 100.711 24.336C 100.711 23.244 100.483 22.458 100.027 21.978C 99.5834 21.486 98.9474 21.24 98.1194 21.24C 97.4594 21.24 96.9194 21.312 96.4994 21.456C 96.0794 21.6 95.7014 21.762 95.3654 21.942C 95.0414 22.122 94.7234 22.284 94.4114 22.428C 94.0994 22.572 93.7274 22.644 93.2954 22.644C 92.9114 22.644 92.5874 22.548 92.3234 22.356C 92.0594 22.164 91.8434 21.936 91.6754 21.672L 90.6674 19.926ZM 105.517 9.486L 100.837 14.22C 100.561 14.496 100.297 14.694 100.045 14.814C 99.7934 14.922 99.4574 14.976 99.0374 14.976L 95.6894 14.976L 98.1374 10.566C 98.3414 10.218 98.5814 9.954 98.8574 9.774C 99.1334 9.582 99.5534 9.486 100.117 9.486L 105.517 9.486ZM 125.23 21.762C 125.062 21.966 124.9 22.128 124.744 22.248C 124.588 22.368 124.366 22.428 124.078 22.428C 123.802 22.428 123.55 22.362 123.322 22.23C 123.106 22.098 122.86 21.954 122.584 21.798C 122.308 21.63 121.984 21.48 121.612 21.348C 121.24 21.216 120.778 21.15 120.226 21.15C 119.542 21.15 118.948 21.276 118.444 21.528C 117.952 21.78 117.544 22.14 117.22 22.608C 116.896 23.076 116.656 23.652 116.5 24.336C 116.344 25.008 116.266 25.77 116.266 26.622C 116.266 28.41 116.608 29.784 117.292 30.744C 117.988 31.704 118.942 32.184 120.154 32.184C 120.802 32.184 121.312 32.106 121.684 31.95C 122.068 31.782 122.392 31.602 122.656 31.41C 122.92 31.206 123.16 31.02 123.376 30.852C 123.604 30.684 123.886 30.6 124.222 30.6C 124.666 30.6 125.002 30.762 125.23 31.086L 126.85 33.084C 126.274 33.744 125.668 34.284 125.032 34.704C 124.396 35.112 123.742 35.436 123.07 35.676C 122.41 35.904 121.744 36.06 121.072 36.144C 120.4 36.24 119.746 36.288 119.11 36.288C 117.97 36.288 116.878 36.072 115.834 35.64C 114.802 35.208 113.89 34.584 113.098 33.768C 112.318 32.94 111.694 31.926 111.226 30.726C 110.77 29.526 110.542 28.158 110.542 26.622C 110.542 25.278 110.74 24.024 111.136 22.86C 111.544 21.684 112.138 20.67 112.918 19.818C 113.71 18.954 114.682 18.276 115.834 17.784C 116.998 17.292 118.342 17.046 119.866 17.046C 121.33 17.046 122.614 17.28 123.718 17.748C 124.822 18.216 125.818 18.9 126.706 19.8L 125.23 21.762Z"/>
<path id="path2_fill" d="M 15.3671 7.68357C 15.3671 11.9271 11.9271 15.3671 7.68357 15.3671C 3.44005 15.3671 0 11.9271 0 7.68357C 0 3.44005 3.44005 0 7.68357 0C 11.9271 0 15.3671 3.44005 15.3671 7.68357Z"/>
</defs>
</svg>
